<?xml version="1.0" encoding="UTF-8" standalone="no"?>
<!DOCTYPE svg PUBLIC "-//W3C//DTD SVG 1.1//EN" "http://www.w3.org/Graphics/SVG/1.1/DTD/svg11.dtd">
<svg width="100%" height="100%" viewBox="0 0 1696 378" version="1.1" xmlns="http://www.w3.org/2000/svg" xmlns:xlink="http://www.w3.org/1999/xlink" xml:space="preserve" xmlns:serif="http://www.serif.com/" style="fill-rule:evenodd;clip-rule:evenodd;stroke-linejoin:round;stroke-miterlimit:2;">
    <g transform="matrix(3.125,0,0,3.125,0,0)">
        <g transform="matrix(0.291502,0,0,0.0413139,-4.70588,-1.73254)">
            <path d="M142.986,2958.73C225.433,2958.73 250.225,2649.56 274.44,2291.57L259.45,2226.48C236.388,2429.89 216.785,2515.32 176.426,2515.32C115.888,2515.32 98.591,2259.03 98.591,1795.27C98.591,1351.85 112.428,1132.17 150.481,1132.17C196.605,1132.17 175.849,1648.82 225.433,1648.82C248.495,1648.82 268.098,1563.39 268.098,1392.53C268.098,1132.17 228.316,936.909 165.471,936.909C62.845,936.909 16.144,1380.33 16.144,1974.26C16.144,2629.22 65.727,2958.73 142.986,2958.73Z" style="fill:rgb(98,82,215);fill-rule:nonzero;"/>
            <path d="M458.361,2913.98L458.361,2751.26C419.156,2751.26 416.849,2669.9 416.849,2474.63L416.849,1506.44C439.912,1372.19 454.902,1331.51 475.081,1331.51C517.747,1331.51 519.476,1600 519.476,1909.17L519.476,2470.57C519.476,2673.97 517.747,2751.26 482,2751.26L482,2913.98L640.553,2913.98L640.553,2751.26C606.536,2751.26 600.194,2678.04 600.194,2458.36L600.194,1713.91C600.194,1205.4 569.637,940.977 510.251,940.977C475.081,940.977 450.866,1050.81 419.156,1282.69L416.849,1282.69L416.849,41.936L382.833,41.936L291.737,168.046L291.737,334.836C291.737,334.836 299.232,322.632 308.457,322.632C324.024,322.632 336.132,342.972 336.132,485.354L336.132,2490.91C336.132,2714.65 326.907,2751.26 295.773,2751.26L295.773,2913.98L458.361,2913.98Z" style="fill:rgb(98,82,215);fill-rule:nonzero;"/>
            <path d="M806.024,2954.66C896.543,2954.66 945.551,2588.54 945.551,1892.9C945.551,1307.1 900.003,940.977 807.754,940.977C710.893,940.977 666.498,1368.12 666.498,1937.65C666.498,2645.49 715.505,2954.66 806.024,2954.66ZM807.754,2755.33C770.278,2755.33 754.134,2478.7 754.134,1896.97C754.134,1433.21 766.242,1136.24 803.141,1136.24C841.194,1136.24 857.914,1416.94 857.914,1925.45C857.914,2486.84 845.806,2755.33 807.754,2755.33Z" style="fill:rgb(98,82,215);fill-rule:nonzero;"/>
            <path d="M1117.36,2954.66C1207.88,2954.66 1256.89,2588.54 1256.89,1892.9C1256.89,1307.1 1211.34,940.977 1119.09,940.977C1022.23,940.977 977.838,1368.12 977.838,1937.65C977.838,2645.49 1026.85,2954.66 1117.36,2954.66ZM1119.09,2755.33C1081.62,2755.33 1065.47,2478.7 1065.47,1896.97C1065.47,1433.21 1077.58,1136.24 1114.48,1136.24C1152.53,1136.24 1169.25,1416.94 1169.25,1925.45C1169.25,2486.84 1157.15,2755.33 1119.09,2755.33Z" style="fill:rgb(98,82,215);fill-rule:nonzero;"/>
            <path d="M1312.82,2962.8L1325.5,2848.89L1326.65,2848.89C1347.99,2913.98 1360.67,2962.8 1396.42,2962.8C1455.23,2962.8 1508.27,2828.55 1508.27,2372.93C1508.27,2014.94 1475.98,1888.83 1421.79,1709.84C1381.43,1575.59 1359.52,1506.44 1359.52,1331.51C1359.52,1213.54 1369.89,1132.17 1397.57,1132.17C1428.13,1132.17 1451.77,1233.88 1468.49,1640.68L1493.86,1640.68L1493.86,977.589L1468.49,977.589L1459.84,1079.29L1458.68,1079.29C1444.27,1018.27 1425.24,940.977 1388.92,940.977C1325.5,940.977 1290.91,1172.86 1290.91,1526.78C1290.91,1864.43 1322.62,1994.6 1367.59,2149.19C1413.14,2307.84 1433.32,2385.14 1433.32,2551.93C1433.32,2706.51 1415.44,2763.47 1390.65,2763.47C1347.41,2763.47 1328.96,2588.54 1317.43,2193.94L1292.06,2193.94L1292.06,2962.8L1312.82,2962.8Z" style="fill:rgb(98,82,215);fill-rule:nonzero;"/>
            <path d="M1708.33,2913.98L1708.33,2751.26C1667.4,2751.26 1652.41,2706.51 1652.41,2442.09L1652.41,1604.07C1665.67,1498.3 1677.78,1421.01 1690.46,1421.01C1699.68,1421.01 1712.94,1591.87 1738.31,1591.87C1755.61,1591.87 1773.48,1498.3 1773.48,1262.35C1773.48,1054.88 1759.07,928.772 1729.09,928.772C1692.77,928.772 1684.12,1091.5 1653.56,1376.26L1651.25,1376.26L1651.25,953.181L1620.7,953.181L1530.18,1079.29L1530.18,1254.22C1530.18,1254.22 1536.52,1246.08 1548.05,1246.08C1568.23,1246.08 1572.27,1327.44 1572.27,1473.89L1572.27,2470.57C1572.27,2698.38 1567.08,2751.26 1529.6,2751.26L1529.6,2913.98L1708.33,2913.98Z" style="fill:rgb(98,82,215);fill-rule:nonzero;"/>
            <rect x="1820.08" y="2506.78" width="57.712" height="407.203" style="fill:rgb(98,82,215);fill-rule:nonzero;"/>
        </g>
    </g>
</svg>
