<?xml version="1.0" encoding="UTF-8" standalone="no"?>
<!DOCTYPE svg PUBLIC "-//W3C//DTD SVG 1.1//EN" "http://www.w3.org/Graphics/SVG/1.1/DTD/svg11.dtd">
<svg width="100%" height="100%" viewBox="0 0 1418 1418" version="1.1" xmlns="http://www.w3.org/2000/svg" xmlns:xlink="http://www.w3.org/1999/xlink" xml:space="preserve" xmlns:serif="http://www.serif.com/" style="fill-rule:evenodd;clip-rule:evenodd;stroke-linejoin:round;stroke-miterlimit:2;">
    <g>
        <path d="M1417.73,709.137C1417.73,317.641 1100.36,0.27 708.867,0.27C317.37,0.27 0,317.641 0,709.137C0,888.197 66.444,1051.7 175.958,1176.47L175.918,1176.49C176.261,1176.88 176.625,1177.24 176.968,1177.63C182.159,1183.52 187.46,1189.31 192.843,1195.03C194.155,1196.42 195.479,1197.8 196.802,1199.18C202.435,1205.06 208.129,1210.88 213.959,1216.57C214.431,1217.03 214.9,1217.49 215.374,1217.95C218.361,1220.85 221.375,1223.72 224.414,1226.57C224.928,1227.05 225.445,1227.53 225.961,1228.01C239.353,1240.48 253.219,1252.44 267.547,1263.85C267.656,1263.94 267.763,1264.03 267.872,1264.11C271.135,1266.71 274.429,1269.27 277.738,1271.81C278.433,1272.34 279.126,1272.88 279.822,1273.41C283.014,1275.84 286.224,1278.24 289.457,1280.62C290.179,1281.15 290.905,1281.67 291.629,1282.2C294.983,1284.65 298.351,1287.08 301.75,1289.47C301.794,1289.5 301.84,1289.53 301.884,1289.56C313.061,1297.41 324.481,1304.94 336.119,1312.15C336.623,1312.46 337.122,1312.78 337.627,1313.09C341,1315.17 344.398,1317.21 347.808,1319.23C348.774,1319.8 349.739,1320.38 350.708,1320.94C354.034,1322.9 357.376,1324.82 360.736,1326.72C361.683,1327.26 362.634,1327.78 363.583,1328.31C367.084,1330.27 370.595,1332.21 374.132,1334.11C374.312,1334.21 374.494,1334.3 374.674,1334.4C386.428,1340.69 398.387,1346.66 410.526,1352.3C411.418,1352.71 412.306,1353.13 413.2,1353.55C416.641,1355.13 420.103,1356.67 423.573,1358.2C424.808,1358.74 426.044,1359.29 427.283,1359.82C430.701,1361.3 434.131,1362.76 437.577,1364.19C438.754,1364.68 439.938,1365.16 441.118,1365.64C444.729,1367.11 448.344,1368.58 451.984,1369.99C452.236,1370.09 452.491,1370.18 452.743,1370.28C465.079,1375.06 477.587,1379.49 490.245,1383.59C491.445,1383.98 492.641,1384.38 493.843,1384.76C497.364,1385.88 500.9,1386.97 504.445,1388.03C505.88,1388.46 507.317,1388.89 508.756,1389.31C512.288,1390.35 515.828,1391.37 519.383,1392.35C520.709,1392.72 522.042,1393.07 523.37,1393.43C527.12,1394.44 530.873,1395.45 534.646,1396.4C534.792,1396.44 534.938,1396.47 535.083,1396.51C542.469,1398.37 549.913,1400.09 557.389,1401.72C558.451,1401.95 559.509,1402.19 560.573,1402.41C561.438,1402.6 562.297,1402.8 563.164,1402.98C569.638,1404.34 576.152,1405.58 582.689,1406.75C584.338,1407.05 585.998,1407.31 587.649,1407.6C593.5,1408.6 599.375,1409.54 605.273,1410.4C607.462,1410.73 609.652,1411.05 611.848,1411.35C619.273,1412.37 626.722,1413.31 634.218,1414.1C634.479,1414.12 634.739,1414.16 635.001,1414.19C640.538,1414.76 646.098,1415.26 651.671,1415.7C652.233,1415.75 652.792,1415.81 653.354,1415.85C658.58,1416.26 663.829,1416.58 669.086,1416.87C669.996,1416.92 670.897,1417 671.808,1417.05C676.968,1417.31 682.152,1417.49 687.342,1417.65C688.331,1417.68 689.313,1417.74 690.303,1417.76C696.472,1417.92 702.66,1418 708.867,1418C716.656,1418 724.404,1417.83 732.133,1417.58C733.24,1417.55 734.347,1417.5 735.454,1417.46C742.265,1417.2 749.049,1416.83 755.812,1416.4C756.522,1416.35 757.241,1416.33 757.951,1416.28C759.463,1416.18 760.955,1416.01 762.464,1415.89C768.038,1415.48 773.595,1415 779.131,1414.45C781.412,1414.23 783.692,1414.01 785.967,1413.76C793.368,1412.96 800.748,1412.09 808.079,1411.06C808.345,1411.02 808.611,1410.99 808.877,1410.95C825.373,1408.62 841.688,1405.73 857.798,1402.28C857.898,1402.26 857.999,1402.24 858.1,1402.22C870.226,1399.62 882.236,1396.71 894.123,1393.5C906.01,1390.29 917.772,1386.78 929.403,1382.97C929.566,1382.92 929.729,1382.87 929.893,1382.81C945.33,1377.75 960.531,1372.17 975.481,1366.1C975.688,1366.02 975.895,1365.93 976.102,1365.85C999.566,1356.29 1022.41,1345.51 1044.54,1333.59C1048.96,1331.2 1053.36,1328.77 1057.73,1326.3C1066.47,1321.35 1075.09,1316.22 1083.6,1310.91C1083.77,1310.8 1083.95,1310.69 1084.13,1310.58C1091.98,1305.67 1099.7,1300.57 1107.34,1295.37C1109.63,1293.81 1111.88,1292.2 1114.15,1290.62C1117.41,1288.34 1120.72,1286.11 1123.94,1283.78C1126.58,1281.87 1129.16,1279.91 1131.76,1277.97C1133.04,1277.01 1134.33,1276.07 1135.61,1275.11C1142.6,1269.82 1149.49,1264.42 1156.27,1258.89C1157.65,1257.77 1159.01,1256.63 1160.37,1255.5C1167.33,1249.74 1174.22,1243.89 1180.96,1237.88C1181.17,1237.69 1181.38,1237.5 1181.6,1237.31C1193.37,1226.77 1204.78,1215.83 1215.82,1204.53C1216.42,1203.92 1217.02,1203.31 1217.62,1202.69C1228.37,1191.62 1238.76,1180.18 1248.78,1168.42C1249.53,1167.54 1250.27,1166.66 1251.01,1165.78C1255.02,1161.03 1258.94,1156.2 1262.83,1151.35C1263.67,1150.29 1264.56,1149.26 1265.4,1148.2C1266.3,1147.06 1267.16,1145.88 1268.05,1144.73C1270.71,1141.32 1273.33,1137.89 1275.93,1134.43C1276.99,1133.01 1278.08,1131.62 1279.13,1130.19C1282.86,1125.13 1286.52,1120.01 1290.13,1114.86C1290.51,1114.31 1290.91,1113.78 1291.29,1113.24L1291.25,1113.23C1370.96,998.588 1417.73,859.342 1417.73,709.137Z" style="fill:rgb(250,192,186);fill-rule:nonzero;"/>
        <path d="M1291.25,1113.23L1253.64,1097.68L1005.22,995.043L901.223,952.075L858.978,724.261C859.756,721.775 860.458,719.247 861.159,716.718C887.39,718.984 919.021,705.934 943.791,679.92C980.337,641.54 988.073,589.583 961.07,563.872C948.409,551.815 930.34,547.765 910.969,550.72L923.521,526.348C929.223,514.458 933.649,502.773 937.141,491.271C944.461,494.348 952.61,496.896 961.353,498.67C997.664,506.036 1030.05,497.476 1033.68,479.55C1037.06,462.916 1014.48,444.08 982.191,435.563C1011.15,415.462 1026.71,388.127 1017.06,373.353C1007.06,358.039 973.801,362.047 942.779,382.307C941.735,382.989 940.748,383.704 939.736,384.404C916.815,300.428 836.095,238.364 749.012,215.542C733.771,211.548 718.186,209.564 702.508,209.252C686.625,148.733 631.563,104.085 566.061,104.085C488.148,104.085 424.988,167.245 424.988,245.157C424.988,281.57 438.789,314.755 461.438,339.782C451.035,357.708 442.795,377.277 437.286,398.299L369.358,657.492C346.346,745.302 398.875,835.141 486.685,858.155L520.591,867.041C519.335,871.556 521,876.837 526.844,878.351C528.288,878.725 529.749,879.046 531.198,879.402L555.02,1007.86L455.392,1052.18L390.78,1080.92L175.958,1176.47L175.918,1176.49C176.261,1176.88 176.625,1177.24 176.968,1177.63C182.159,1183.52 187.46,1189.31 192.843,1195.03C194.155,1196.42 195.479,1197.8 196.802,1199.18C202.435,1205.06 208.129,1210.88 213.959,1216.57C214.431,1217.03 214.9,1217.49 215.374,1217.95C218.361,1220.85 221.375,1223.72 224.414,1226.57C224.928,1227.05 225.445,1227.53 225.961,1228.01C239.353,1240.48 253.22,1252.44 267.547,1263.85C267.656,1263.94 267.763,1264.03 267.872,1264.11C271.135,1266.71 274.429,1269.27 277.738,1271.81C278.433,1272.34 279.126,1272.88 279.822,1273.41C283.014,1275.84 286.224,1278.24 289.457,1280.62C290.179,1281.15 290.905,1281.67 291.629,1282.2C294.983,1284.65 298.351,1287.08 301.75,1289.47C301.794,1289.5 301.84,1289.53 301.884,1289.56C313.061,1297.41 324.481,1304.94 336.119,1312.15C336.623,1312.46 337.122,1312.78 337.627,1313.09C341,1315.17 344.398,1317.21 347.808,1319.23C348.774,1319.8 349.739,1320.38 350.708,1320.94C354.034,1322.9 357.376,1324.82 360.736,1326.72C361.683,1327.26 362.634,1327.78 363.583,1328.31C367.084,1330.27 370.595,1332.21 374.132,1334.11C374.312,1334.21 374.494,1334.3 374.674,1334.4C386.428,1340.69 398.387,1346.66 410.526,1352.3C411.418,1352.71 412.306,1353.13 413.2,1353.55C416.641,1355.13 420.103,1356.67 423.573,1358.2C424.808,1358.74 426.044,1359.29 427.283,1359.82C430.701,1361.3 434.131,1362.76 437.577,1364.19C438.754,1364.68 439.938,1365.16 441.118,1365.64C444.729,1367.11 448.344,1368.58 451.984,1369.99C452.236,1370.09 452.491,1370.18 452.743,1370.28C465.079,1375.06 477.587,1379.49 490.246,1383.59C491.445,1383.98 492.641,1384.38 493.843,1384.76C497.364,1385.88 500.9,1386.97 504.445,1388.03C505.88,1388.46 507.317,1388.89 508.756,1389.31C512.288,1390.35 515.828,1391.37 519.383,1392.35C520.709,1392.72 522.042,1393.07 523.37,1393.43C527.12,1394.44 530.873,1395.45 534.646,1396.4C534.792,1396.44 534.938,1396.47 535.083,1396.51C542.469,1398.37 549.913,1400.09 557.389,1401.72C558.451,1401.95 559.509,1402.19 560.573,1402.41C561.438,1402.6 562.297,1402.8 563.164,1402.98C569.638,1404.34 576.152,1405.58 582.689,1406.75C584.338,1407.05 585.998,1407.31 587.649,1407.6C593.5,1408.6 599.375,1409.54 605.273,1410.4C607.462,1410.73 609.652,1411.05 611.848,1411.35C619.273,1412.37 626.722,1413.31 634.218,1414.1C634.479,1414.12 634.739,1414.16 635.001,1414.19C640.538,1414.76 646.098,1415.26 651.671,1415.7C652.233,1415.75 652.792,1415.81 653.354,1415.85C658.58,1416.26 663.829,1416.58 669.086,1416.87C669.996,1416.92 670.897,1417 671.808,1417.05C676.969,1417.31 682.152,1417.49 687.342,1417.65C688.331,1417.68 689.313,1417.74 690.303,1417.76C696.472,1417.92 702.66,1418 708.867,1418C716.656,1418 724.404,1417.83 732.133,1417.58C733.24,1417.55 734.347,1417.5 735.455,1417.46C742.265,1417.2 749.049,1416.83 755.812,1416.4C756.522,1416.35 757.241,1416.33 757.951,1416.28C759.463,1416.18 760.955,1416.01 762.464,1415.89C768.038,1415.48 773.595,1415 779.131,1414.45C781.412,1414.23 783.692,1414.01 785.967,1413.76C793.368,1412.96 800.748,1412.09 808.079,1411.06C808.345,1411.02 808.611,1410.99 808.877,1410.95C825.373,1408.62 841.688,1405.73 857.798,1402.28C857.898,1402.26 857.999,1402.24 858.1,1402.22C870.226,1399.62 882.236,1396.71 894.123,1393.5C906.01,1390.29 917.772,1386.78 929.403,1382.97C929.566,1382.92 929.729,1382.87 929.893,1382.81C945.33,1377.75 960.532,1372.17 975.481,1366.1C975.688,1366.02 975.895,1365.93 976.102,1365.85C999.566,1356.29 1022.41,1345.51 1044.54,1333.59C1048.96,1331.2 1053.36,1328.77 1057.73,1326.3C1066.47,1321.35 1075.09,1316.22 1083.6,1310.91C1083.77,1310.8 1083.95,1310.69 1084.13,1310.58C1091.98,1305.67 1099.7,1300.57 1107.34,1295.37C1109.63,1293.81 1111.88,1292.2 1114.15,1290.62C1117.41,1288.34 1120.72,1286.11 1123.94,1283.78C1126.58,1281.87 1129.16,1279.91 1131.76,1277.97C1133.04,1277.01 1134.33,1276.07 1135.61,1275.11C1142.6,1269.82 1149.49,1264.42 1156.27,1258.89C1157.65,1257.77 1159.01,1256.63 1160.37,1255.5C1167.33,1249.74 1174.22,1243.89 1180.96,1237.88C1181.17,1237.69 1181.38,1237.5 1181.6,1237.31C1193.37,1226.77 1204.78,1215.83 1215.82,1204.53C1216.42,1203.92 1217.02,1203.31 1217.62,1202.69C1228.37,1191.62 1238.76,1180.18 1248.78,1168.42C1249.53,1167.54 1250.27,1166.66 1251.01,1165.78C1255.02,1161.03 1258.94,1156.2 1262.83,1151.35C1263.67,1150.29 1264.56,1149.26 1265.4,1148.2C1266.3,1147.06 1267.16,1145.88 1268.05,1144.73C1270.71,1141.32 1273.33,1137.89 1275.93,1134.43C1276.99,1133.01 1278.08,1131.62 1279.13,1130.19C1282.86,1125.13 1286.52,1120.01 1290.13,1114.86C1290.51,1114.31 1290.91,1113.78 1291.29,1113.24L1291.25,1113.23Z" style="fill:rgb(219,130,82);fill-rule:nonzero;"/>
        <path d="M1291.25,1113.23L1253.64,1097.68L1005.22,995.043L901.223,952.075L911.787,1009.05L911.756,1009.06C911.779,1009.17 911.829,1009.27 911.85,1009.39C916.66,1035.33 843.096,1070.72 747.539,1088.44C651.983,1106.16 570.621,1099.5 565.811,1073.56C565.448,1071.6 565.583,1069.59 566.086,1067.54L555.02,1007.86L455.392,1052.18L390.78,1080.92L175.958,1176.47L175.918,1176.49C176.261,1176.88 176.625,1177.24 176.968,1177.63C182.159,1183.52 187.46,1189.31 192.843,1195.03C194.155,1196.42 195.479,1197.8 196.802,1199.18C202.435,1205.06 208.129,1210.88 213.959,1216.57C214.431,1217.03 214.9,1217.49 215.374,1217.95C218.361,1220.85 221.375,1223.72 224.414,1226.57C224.928,1227.05 225.445,1227.53 225.961,1228.01C239.353,1240.48 253.22,1252.44 267.547,1263.85C267.656,1263.94 267.763,1264.03 267.872,1264.11C271.135,1266.71 274.429,1269.27 277.738,1271.81C278.433,1272.34 279.126,1272.88 279.822,1273.41C283.014,1275.84 286.224,1278.24 289.457,1280.62C290.179,1281.15 290.905,1281.67 291.629,1282.2C294.983,1284.65 298.351,1287.08 301.75,1289.47C301.794,1289.5 301.84,1289.53 301.884,1289.56C313.061,1297.41 324.481,1304.94 336.119,1312.15C336.623,1312.46 337.122,1312.78 337.627,1313.09C341,1315.17 344.398,1317.21 347.808,1319.23C348.774,1319.8 349.739,1320.38 350.708,1320.94C354.034,1322.9 357.376,1324.82 360.736,1326.72C361.683,1327.26 362.634,1327.78 363.583,1328.31C367.084,1330.27 370.595,1332.21 374.132,1334.11C374.312,1334.21 374.494,1334.3 374.674,1334.4C386.428,1340.69 398.387,1346.66 410.526,1352.3C411.418,1352.71 412.306,1353.13 413.2,1353.55C416.641,1355.13 420.103,1356.67 423.573,1358.2C424.808,1358.74 426.044,1359.29 427.283,1359.82C430.701,1361.3 434.131,1362.76 437.577,1364.19C438.754,1364.68 439.938,1365.16 441.118,1365.64C444.729,1367.11 448.344,1368.58 451.984,1369.99C452.236,1370.09 452.491,1370.18 452.743,1370.28C465.079,1375.06 477.587,1379.49 490.246,1383.59C491.445,1383.98 492.641,1384.38 493.843,1384.76C497.364,1385.88 500.9,1386.97 504.445,1388.03C505.88,1388.46 507.317,1388.89 508.756,1389.31C512.288,1390.35 515.828,1391.37 519.383,1392.35C520.709,1392.72 522.042,1393.07 523.37,1393.43C527.12,1394.44 530.873,1395.45 534.646,1396.4C534.792,1396.44 534.938,1396.47 535.083,1396.51C542.469,1398.37 549.913,1400.09 557.389,1401.72C558.451,1401.95 559.509,1402.19 560.573,1402.41C561.438,1402.6 562.297,1402.8 563.164,1402.98C569.638,1404.34 576.152,1405.58 582.689,1406.75C584.338,1407.05 585.998,1407.31 587.649,1407.6C593.5,1408.6 599.375,1409.54 605.273,1410.4C607.462,1410.73 609.652,1411.05 611.848,1411.35C619.273,1412.37 626.722,1413.31 634.218,1414.1C634.479,1414.12 634.739,1414.16 635.001,1414.19C640.538,1414.76 646.098,1415.26 651.671,1415.7C652.233,1415.75 652.792,1415.81 653.354,1415.85C658.58,1416.26 663.829,1416.58 669.086,1416.87C669.996,1416.92 670.897,1417 671.808,1417.05C676.969,1417.31 682.152,1417.49 687.342,1417.65C688.331,1417.68 689.313,1417.74 690.303,1417.76C696.472,1417.92 702.66,1418 708.867,1418C716.656,1418 724.404,1417.83 732.133,1417.58C733.24,1417.55 734.347,1417.5 735.455,1417.46C742.265,1417.2 749.049,1416.83 755.812,1416.4C756.522,1416.35 757.241,1416.33 757.951,1416.28C759.463,1416.18 760.955,1416.01 762.464,1415.89C768.038,1415.48 773.595,1415 779.131,1414.45C781.412,1414.23 783.692,1414.01 785.967,1413.76C793.368,1412.96 800.748,1412.09 808.079,1411.06C808.345,1411.02 808.611,1410.99 808.877,1410.95C825.373,1408.62 841.688,1405.73 857.798,1402.28C857.898,1402.26 857.999,1402.24 858.1,1402.22C870.226,1399.62 882.236,1396.71 894.123,1393.5C906.01,1390.29 917.772,1386.78 929.403,1382.97C929.566,1382.92 929.729,1382.87 929.893,1382.81C945.33,1377.75 960.532,1372.17 975.481,1366.1C975.688,1366.02 975.895,1365.93 976.102,1365.85C999.566,1356.29 1022.41,1345.51 1044.54,1333.59C1048.96,1331.2 1053.36,1328.77 1057.73,1326.3C1066.47,1321.35 1075.09,1316.22 1083.6,1310.91C1083.77,1310.8 1083.95,1310.69 1084.13,1310.58C1091.98,1305.67 1099.7,1300.57 1107.34,1295.37C1109.63,1293.81 1111.88,1292.2 1114.15,1290.62C1117.41,1288.34 1120.72,1286.11 1123.94,1283.78C1126.58,1281.87 1129.16,1279.91 1131.76,1277.97C1133.04,1277.01 1134.33,1276.07 1135.61,1275.11C1142.6,1269.82 1149.49,1264.42 1156.27,1258.89C1157.65,1257.77 1159.01,1256.63 1160.37,1255.5C1167.33,1249.74 1174.22,1243.89 1180.96,1237.88C1181.17,1237.69 1181.38,1237.5 1181.6,1237.31C1193.37,1226.77 1204.78,1215.83 1215.82,1204.53C1216.42,1203.92 1217.02,1203.31 1217.62,1202.69C1228.37,1191.62 1238.76,1180.18 1248.78,1168.42C1249.53,1167.54 1250.27,1166.66 1251.01,1165.78C1255.02,1161.03 1258.94,1156.2 1262.83,1151.35C1263.67,1150.29 1264.56,1149.26 1265.4,1148.2C1266.3,1147.06 1267.16,1145.88 1268.05,1144.73C1270.71,1141.32 1273.33,1137.89 1275.93,1134.43C1276.99,1133.01 1278.08,1131.62 1279.13,1130.19C1282.86,1125.13 1286.52,1120.01 1290.13,1114.86C1290.51,1114.31 1290.91,1113.78 1291.29,1113.24L1291.25,1113.23Z" style="fill:rgb(98,88,166);fill-rule:nonzero;"/>
        <path d="M1005.22,995.043C1002.54,1002.43 999.44,1009.64 996,1016.61C982.224,1044.51 963.459,1069.45 944.528,1094.24C938.217,1102.51 931.889,1110.76 925.719,1119.1C915.539,1132.85 905.555,1147.35 901.571,1164C897.587,1180.64 900.807,1200.06 913.717,1211.29C919.026,1215.91 925.292,1218.66 931.991,1219.9C933.834,1220.24 935.709,1220.47 937.605,1220.59C950.884,1221.44 965.236,1217.11 976.936,1210.27C984.229,1206.01 991.001,1200.95 997.664,1195.73C1002.11,1192.25 1006.5,1188.69 1010.97,1185.26C1014.32,1182.68 1017.72,1180.17 1021.2,1177.81C1024.69,1175.44 1028.27,1173.22 1031.99,1171.23C1035.1,1169.57 1038.39,1168.12 1041.79,1166.9C1045.19,1165.69 1048.7,1164.72 1052.25,1164.04C1056.51,1163.22 1060.81,1162.81 1065.04,1162.87C1069.26,1162.94 1073.4,1163.48 1077.33,1164.58C1083.88,1166.4 1089.83,1169.75 1094.59,1174.94C1106.5,1187.95 1106.69,1207.43 1107.95,1225.02C1109.37,1244.97 1113.19,1265.19 1123.15,1282.53L1123.94,1283.78C1126.58,1281.87 1129.16,1279.91 1131.76,1277.97C1133.04,1277.01 1134.33,1276.07 1135.61,1275.11C1142.6,1269.82 1149.49,1264.42 1156.27,1258.89C1157.65,1257.77 1159.01,1256.63 1160.37,1255.5C1167.33,1249.74 1174.22,1243.89 1180.96,1237.88C1181.17,1237.69 1181.38,1237.5 1181.6,1237.31C1193.37,1226.77 1204.78,1215.83 1215.82,1204.53C1216.42,1203.92 1217.02,1203.31 1217.62,1202.69C1228.37,1191.62 1238.76,1180.18 1248.78,1168.42C1249.53,1167.54 1250.27,1166.66 1251.01,1165.78C1255.02,1161.03 1258.94,1156.2 1262.83,1151.35C1263.67,1150.29 1264.56,1149.26 1265.4,1148.2C1266.3,1147.06 1267.16,1145.88 1268.05,1144.73C1270.71,1141.32 1273.33,1137.89 1275.93,1134.43C1276.99,1133.01 1278.08,1131.62 1279.13,1130.19C1282.86,1125.13 1286.52,1120.01 1290.13,1114.86C1290.51,1114.31 1290.91,1113.78 1291.29,1113.24L1291.25,1113.23L1253.64,1097.68L1005.22,995.043Z" style="fill:rgb(253,188,71);fill-rule:nonzero;"/>
        <path d="M336.339,1132.35C361.962,1175.89 406.51,1207.85 455.973,1218.16C481.935,1223.57 512.427,1221.8 530.193,1202.11C540.632,1190.54 544.916,1174.31 544.201,1158.75C542.816,1128.56 524.083,1101.44 500.893,1082.06C486.93,1070.39 471.347,1061.01 455.392,1052.18L390.78,1080.92L324.823,1110.25C328.419,1117.83 332.174,1125.27 336.339,1132.35Z" style="fill:rgb(253,188,71);fill-rule:nonzero;"/>
        <path d="M751.366,1364.23C754.909,1339.63 763.876,1315.6 762.962,1290.77C762.047,1265.94 746.82,1238.75 722.132,1235.93C701.782,1233.61 683.586,1248.31 670.013,1263.65C631.142,1307.57 606.944,1364.8 563.164,1402.98C569.638,1404.34 576.152,1405.58 582.689,1406.75C584.338,1407.05 585.998,1407.31 587.649,1407.6C593.5,1408.6 599.375,1409.54 605.273,1410.4C607.462,1410.73 609.652,1411.05 611.848,1411.35C619.273,1412.37 626.722,1413.31 634.218,1414.1C634.479,1414.12 634.739,1414.16 635.001,1414.19C640.538,1414.76 646.098,1415.26 651.671,1415.7C652.233,1415.75 652.792,1415.81 653.354,1415.85C658.58,1416.26 663.829,1416.58 669.086,1416.87C669.996,1416.92 670.897,1417 671.808,1417.05C676.968,1417.31 682.152,1417.49 687.342,1417.65C688.331,1417.68 689.313,1417.74 690.303,1417.76C696.472,1417.92 702.66,1418 708.867,1418C716.656,1418 724.407,1417.85 732.133,1417.58C733.24,1417.55 734.347,1417.5 735.454,1417.46C742.265,1417.2 749.049,1416.83 755.812,1416.4C756.522,1416.35 757.241,1416.33 757.951,1416.28C750.369,1401.06 748.877,1381.51 751.366,1364.23Z" style="fill:rgb(253,188,71);fill-rule:nonzero;"/>
        <path d="M708.691,882.738C720.059,878.954 715.188,860.879 703.718,864.697C676.925,873.617 647.31,873.731 619.392,872.541C589.963,871.289 560.369,867.706 531.817,860.311C525.997,858.803 521.843,862.541 520.591,867.041C519.335,871.556 521,876.837 526.844,878.351C528.288,878.725 529.749,879.046 531.198,879.402C559.975,886.463 589.849,890.003 619.392,891.25C648.861,892.495 680.421,892.149 708.691,882.738Z" style="fill:rgb(181,100,54);fill-rule:nonzero;"/>
        <path d="M551.704,536.888C534.224,551.823 516.744,566.757 499.265,581.692C490.509,589.172 481.157,595.959 478.213,607.89C475.387,619.34 478.554,630.534 485.923,639.517C488.376,642.508 490.954,645.405 493.466,648.346C501.869,658.181 510.272,668.016 518.675,677.851C526.508,687.019 539.688,673.732 531.904,664.622C525.244,656.826 518.583,649.03 511.923,641.234C505.928,634.218 494.827,625.211 495.879,614.942C496.788,606.079 506.24,600.264 512.492,594.921C522.882,586.045 533.271,577.169 543.659,568.292C550.751,562.234 557.842,556.176 564.933,550.117C574.102,542.284 560.814,529.104 551.704,536.888Z" style="fill:rgb(181,100,54);fill-rule:nonzero;"/>
        <path d="M659.189,689.683C643.815,716.279 612.871,730.208 582.754,723.457C571.027,720.827 566.019,738.86 577.781,741.497C616.031,750.073 655.67,733.158 675.343,699.126C681.38,688.683 665.219,679.251 659.189,689.683Z" style="fill:rgb(181,100,54);fill-rule:nonzero;"/>
        <path d="M483.045,527.955C489.587,529.937 497.397,523.263 500.491,513.05C503.585,502.836 500.79,492.951 494.249,490.97C487.708,488.988 479.897,495.662 476.803,505.874C473.709,516.088 476.504,525.974 483.045,527.955Z" style="fill-rule:nonzero;"/>
        <path d="M671.974,524.045C665.433,522.064 657.622,528.738 654.528,538.951C651.435,549.165 654.229,559.05 660.771,561.031C667.312,563.013 675.122,556.339 678.215,546.126C681.309,535.913 678.515,526.027 671.974,524.045Z" style="fill-rule:nonzero;"/>
        <path d="M464.335,342.886C507.224,390.989 616.312,481.791 827.609,503.386C827.609,503.386 765.217,591.681 815.956,638.561C820.797,620.864 830.896,602.681 846.007,586.812C865.416,566.428 889.03,554.067 910.969,550.72L923.521,526.348C929.223,514.458 933.649,502.773 937.141,491.271C944.461,494.348 952.61,496.896 961.353,498.67C997.664,506.036 1030.05,497.476 1033.68,479.55C1037.06,462.916 1014.48,444.08 982.191,435.563C1011.15,415.462 1026.71,388.127 1017.06,373.353C1007.06,358.039 973.801,362.047 942.779,382.307C941.734,382.989 940.748,383.704 939.736,384.404C916.815,300.428 836.095,238.364 749.012,215.542C733.771,211.548 718.186,209.564 702.508,209.252C686.625,148.733 631.563,104.085 566.061,104.085C488.148,104.085 424.988,167.245 424.988,245.157C424.988,281.57 438.789,314.755 461.438,339.782C462.386,340.831 463.373,341.841 464.352,342.86C464.347,342.87 464.341,342.877 464.335,342.886Z" style="fill-rule:nonzero;"/>
        <path d="M875.539,665.686C874.974,665.128 874.447,664.537 873.93,663.936C873.791,663.663 872.922,662.406 872.778,662.154C872.6,661.837 871.902,660.141 871.861,660.164C871.61,659.426 871.353,658.691 871.161,657.932C871.087,657.64 870.809,656.006 870.729,655.745C870.648,654.894 870.574,654.041 870.559,653.186C870.539,652.053 870.573,650.918 870.655,649.789C870.686,649.38 870.729,648.974 870.771,648.568C870.796,648.421 870.83,648.209 870.877,647.917C873.067,637.994 877.084,630.221 884.205,622.864C884.313,622.751 884.432,622.666 884.541,622.555C885.23,622.911 885.955,623.2 886.629,623.589C888.541,624.692 890.254,626.092 892.133,627.227C892.057,627.181 892.018,627.157 891.951,627.116C892.015,627.162 892.079,627.208 892.128,627.248L893.273,628.217C894.105,628.939 894.917,629.685 895.705,630.454C897.286,631.996 898.744,633.64 900.157,635.336C900.168,635.349 900.17,635.35 900.181,635.363L900.876,636.313C901.572,637.292 902.238,638.294 902.871,639.316C904.032,641.187 905.083,643.127 906.015,645.122L906.266,645.667C906.333,645.821 906.328,645.807 906.368,645.897L906.487,646.198C906.887,647.224 907.254,648.261 907.589,649.309C908.292,651.504 908.838,653.74 909.259,656.005C910.152,660.828 916.243,664.002 920.766,662.539C925.926,660.869 928.256,656.199 927.299,651.032C924.354,635.145 914.578,620.399 901.328,610.924C903.506,610.047 905.773,609.335 908.154,608.81C908.434,608.749 910.378,608.453 910.573,608.389C911.465,608.305 912.357,608.227 913.255,608.207C914.342,608.184 915.416,608.272 916.5,608.291C916.732,608.314 916.887,608.329 917.017,608.341C917.316,608.393 917.617,608.44 917.914,608.503C918.918,608.713 919.912,608.977 920.886,609.298C921.158,609.388 921.426,609.493 921.696,609.593C921.809,609.647 921.94,609.71 922.143,609.805C923.001,610.32 923.875,610.815 924.732,611.334C924.791,611.376 924.813,611.391 924.862,611.427L925.788,612.251C929.502,615.673 935.342,615.927 939.017,612.251C942.484,608.784 942.746,602.458 939.017,599.022C923.984,585.173 901.732,588.179 885.411,598.097C867.335,609.082 853.229,628.741 851.92,650.218C851.278,660.745 854.726,671.448 862.311,678.916C870.898,687.37 884.137,674.15 875.539,665.686Z" style="fill:rgb(181,100,54);fill-rule:nonzero;"/>
        <path d="M476.915,277.233C482.24,275.77 484.234,270.736 483.448,265.726C477.021,224.787 500.984,183.51 539.614,168.663C544.327,166.852 547.58,162.37 546.147,157.156C544.909,152.648 539.382,148.8 534.64,150.623C511.87,159.374 492.344,174.882 479.526,195.77C465.756,218.211 461.353,244.875 465.408,270.7C466.191,275.695 472.438,278.463 476.915,277.233Z" style="fill:white;fill-rule:nonzero;"/>
    </g>
</svg>
